# xmcd
#
# Track frame offsets: 
#        150
#        23096
#        43050
#        63037
#        83643
#        100678
#        123581
#        144004
#        160546
#        183758
#        198007
#        214550
#
# Disc length: 3116 seconds
#
# Revision: 1
# Processed by: cddbd v1.5.2PL0 Copyright (c) Steve Scherf et al.
# Submitted via: ExactAudioCopy v1.0b3
#
DISCID=860c2a0c
DTITLE=Various Artist - Latino! Greatest Hits [CD 3)
DYEAR=2008
DGENRE=Latin
TTITLE0=Victor Manuelle - Hay Que Poner El Alma
TTITLE1=Elvis Crespo - Suavemente
TTITLE2=Monchy and Alexandra - Perdidos
TTITLE3=Mamborama - Cuba Te Llama
TTITLE4=2 Soca - Follow the Leader
TTITLE5=Willy Chirino - La Jinetera
TTITLE6=Manolito Simonet Y Su Trabuco - Locos Por Mi Habana
TTITLE7=Rodolfo Y Su Tipica - La Colegiala
TTITLE8=Manolín (El Médico De La Salsa) - La Bola
TTITLE9=Yaga and Mackie feat. Nina Sky - Bailando
TTITLE10=Bamboleo - Todo Lo Bonito
TTITLE11=Compay Segundo Y Elíades Ochoa - Chan Chan
EXTD=YEAR: 2008
EXTT0=
EXTT1=
EXTT2=
EXTT3=
EXTT4=
EXTT5=
EXTT6=
EXTT7=
EXTT8=
EXTT9=
EXTT10=
EXTT11=
PLAYORDER=
